<?xml version="1.0" encoding="UTF-8" standalone="no"?><!DOCTYPE svg PUBLIC "-//W3C//DTD SVG 1.1//EN" "http://www.w3.org/Graphics/SVG/1.1/DTD/svg11.dtd"><svg width="100%" height="100%" viewBox="0 0 496 496" version="1.1" xmlns="http://www.w3.org/2000/svg" xmlns:xlink="http://www.w3.org/1999/xlink" xml:space="preserve" xmlns:serif="http://www.serif.com/" style="fill-rule:evenodd;clip-rule:evenodd;stroke-linejoin:round;stroke-miterlimit:2;"><g id="Logo"><path d="M364.156,140.501c-2.301,0.026 -2.117,0.405 -3.185,2.446c-3.346,6.391 -14.324,15.834 -15.731,17.044c-26.421,22.727 -26.606,23.904 -34.32,57.856c-1.011,4.452 5.446,-0.66 5.816,-0.952c25.131,-19.893 27.211,-29.667 33.109,-40.23c1.207,-2.162 5.055,-2.295 3.205,3.083c-14.253,41.432 -41.131,52.732 -83.947,73.916c-47.568,23.534 -56.245,58.831 -19.024,77.44c45.327,22.662 133.412,41.8 131.494,70.594c-2.555,38.355 -86.898,-24.395 -93.182,-27.378c-3.176,-1.507 -1.769,6.071 -2.629,10.261c-7.502,36.562 -65.123,29.942 -71.379,11.873c-1.722,-4.974 6.164,-0.503 6.626,-0.242c25.086,14.223 46.727,3.932 52.927,-8.603c9.108,-18.414 -2.156,-25.039 -44.177,-47.073c-52.812,-27.692 -58.497,-30.809 -71.457,-25.61c-21.569,8.651 -25.324,10.902 -66.392,-14.673c-30.552,-19.026 -43.034,-25.491 -40.556,-29.984c3.104,-5.63 60.943,31.498 68.628,30.216c13.778,-2.299 -32.238,-23.161 -56.777,-38.019c-7.724,-4.677 -3.513,-9.604 1.157,-7.492c61.706,27.91 64.926,32.66 65.627,27.026c0.861,-6.91 -62.724,-32.086 -64.658,-39.932c-2.008,-8.144 23.59,5.633 25.547,6.509c41.424,18.542 41.144,19.615 44.877,19.35c19.593,-1.389 -55.486,-32.277 -60.77,-37.864c-0.468,-0.495 -4.014,-8.054 7.084,-3.732c78.646,30.632 83.386,35.315 87.908,50.663c5.937,20.152 7.891,19.842 26.278,29.829c1.64,0.891 14.331,7.784 21.054,10.05c4.847,1.634 1.258,-2.122 0.623,-7.174c-6.054,-48.146 59.38,-69.957 70.207,-75.216c21.24,-10.317 14.812,-27.226 19.239,-40.991c13.396,-41.649 36.371,-26.934 52.178,-67.633c3.153,-8.119 11.782,5.842 15.083,17.556c19.773,70.174 -37.569,99.839 -52.936,94.612c-11.615,-3.951 30.457,-7.515 42.651,-39.451c11.226,-29.402 3.361,-46.322 -0.195,-58.077Z" style="fill:#a0522d;"/><path d="M325.484,277.044c2.075,-4.808 4.374,-12.846 13.61,-22.438c12.296,-12.772 28.351,-17.866 31.121,-18.745c73.133,-23.207 97.383,25.26 47.717,66.204c-42.14,34.739 -76.659,14.68 -80.897,12.998c-20.637,-8.194 -47.483,15.982 -59.076,18.561c-3.762,0.837 -19.824,-6.705 -19.864,-6.901c-0.514,-2.504 10.474,-6.227 13.347,-7.425c49.613,-20.691 48.441,-24.888 54.042,-42.254Zm44.52,33.501c4.72,-0.234 33.5,-1.661 51.622,-28.713c0.286,-0.427 6.167,-9.205 0.566,-6.403c-2.608,1.305 -12.158,19.202 -41.617,27.917c-10.807,3.197 -36.739,-0.198 -26.224,4.794c3.589,1.704 14.387,2.332 15.652,2.405Z" style="fill:#a0522d;"/><path d="M289.232,186.655c-0.355,3.452 -2.594,25.242 -24.916,35.511c-11.223,5.163 9.448,-10.402 -0.526,-28.339c-3.743,-6.731 -4.952,11.696 -11.648,6.518c-12.693,-9.816 -3.954,-36.896 -11.015,-26.512c-1.22,1.794 -22.132,24.383 -8.549,44.217c9.827,14.35 -40.859,-9.342 -23.16,-46.683c3.069,-6.476 8.688,-13.695 6.54,-24.684c-0.722,-3.693 1.927,-4.013 4.041,-0.997c4.746,6.769 3.722,18.525 8.122,10.01c10.463,-20.25 15.085,-19.657 12.237,-41.971c-1.064,-8.34 26.074,11.108 23.631,36.44c-0.22,2.284 -4.208,19.294 3.633,19.572c10.424,0.37 5.161,-26.498 12.873,-13.113c8.104,14.067 8.556,16.868 8.736,30.031Z" style="fill:#a0522d;"/><path d="M123.745,413.516c-19.055,-8.07 -10.11,-25.431 8.868,-35.457c28.549,-15.083 65.756,-26.943 81.652,-34.44c1.803,-0.85 4.587,-2.163 23.389,8.584c0.619,0.354 3.697,2.422 -5.019,7.359c-66.161,37.476 -85.116,57.478 -108.889,53.955Z" style="fill:#a0522d;"/><path d="M117.393,155.518c0.711,-2.64 8.011,-29.765 13.097,-31.571c8.667,-3.079 0.609,9.074 20.144,25.327c32.188,26.781 34.806,27.319 39.594,63.271c3.134,23.531 27.878,24.879 47.678,36.933c4.754,2.894 -2.673,7.439 -5.032,7.325c-1.356,-0.065 -35.611,-16.949 -44.622,-22.335c-44.492,-26.593 -47.342,-58.506 -46.52,-59.199c2.713,-2.285 2.267,0.733 6.996,9.125c11.018,19.553 31.887,35.596 34.017,35.492c1.552,-0.075 0.799,-0.951 -2.556,-19.252c-5.999,-32.726 -27.185,-28.322 -46.722,-58.719c-4.404,-6.852 -10.79,22.975 -7.638,41.146c7.831,45.156 49.958,47.697 48.467,54.097c-0.819,3.513 -66.56,-2.583 -56.903,-81.641Z" style="fill:#a0522d;"/><path d="M169.353,141.778c-1.49,4.559 -2.838,12.752 -8.533,6.006c-6.324,-7.491 27.729,-80.221 108.418,-64.626c43.215,8.352 78.178,65.896 60.914,67.295c-5.998,0.486 -9.491,-51.898 -76.394,-60.891c-28.139,-3.783 -52.766,13.638 -56.615,16.361c-15.617,11.047 -26.191,32.597 -27.79,35.855Z" style="fill:#a0522d;"/><path d="M256.733,275.548c-2.757,-4.116 -4.111,-5.569 0.366,-7.653c3.131,-1.457 4.707,-0.418 6.937,2.136c21.475,24.597 3.412,40.994 3.455,32.857c0.066,-12.426 -0.299,-13.793 -10.758,-27.34Z" style="fill:#a0522d;"/></g></svg>